# xmcd
#
# Track frame offsets:
#	150
#	18649
#	41496
#	65931
#	98474
#	128854
#	150647
#	176764
#	215631
#	245987
#	276901
#	296883
#
# Disc length: 4201 seconds
#
# Revision: 1
# Processed by: cddbd v1.5.1PL2 Copyright (c) Steve Scherf et al.
# Submitted via: audiograbber 1.81.03
#
DISCID=bf10670c
DTITLE=*RoGeR WaTeRs* - Flickering Flame:The Solo Years vol.1
DYEAR=2000
DGENRE=Rock/Country
TTITLE0=*RoGeR WaTeRs*-Knocking On The Heaven's Door
TTITLE1=*RoGeR WaTeRs*-Too Much Rope
TTITLE2=*RoGeR WaTeRs*-The Tide Is Turning
TTITLE3=*RoGeR WaTeRs*-Perfect Sense Part I and II
TTITLE4=*RoGeR WaTeRs*-Three Wishes
TTITLE5=*RoGeR WaTeRs*-5:06 AM(Every Strangers Eyes)
TTITLE6=*RoGeR WaTeRs*-Who Needs Information?
TTITLE7=*RoGeR WaTeRs*-Each Small Candle
TTITLE8=*RoGeR WaTeRs*-Flickering Flame(New Demo)
TTITLE9=*RoGeR WaTeRs*-Towers Of Faith
TTITLE10=*RoGeR WaTeRs*-Raadio Waves
TTITLE11=*RoGeR WaTeRs*-Lost Boys Calling (Original Demo)
EXTD=_-_-_BoNi_-_-_-         
EXTT0=Original Performer:Bob Dylan
EXTT1=
EXTT2=
EXTT3=
EXTT4=
EXTT5=
EXTT6=
EXTT7=
EXTT8=
EXTT9=
EXTT10=
EXTT11=
PLAYORDER=
